<svg xmlns="http://www.w3.org/2000/svg" width="240" height="280" viewBox="0 0 240 280">
 <defs>
  <linearGradient id="hair" x1="0" x2=".8" y2="1"><stop stop-color="#fffdfb"/><stop offset=".47" stop-color="#e5eaf9"/><stop offset="1" stop-color="#98a6d1"/></linearGradient>
  <linearGradient id="hairBack" x2="1" y2="1"><stop stop-color="#a4afdc"/><stop offset=".45" stop-color="#e4e9fa"/><stop offset="1" stop-color="#6c78b3"/></linearGradient>
  <linearGradient id="skin" x2=".2" y2="1"><stop stop-color="#fff5e9"/><stop offset=".73" stop-color="#ffe9de"/><stop offset="1" stop-color="#f1bfc0"/></linearGradient>
  <linearGradient id="coat" x1="0" x2="1" y2="1"><stop stop-color="#526bd0"/><stop offset=".5" stop-color="#444387"/><stop offset="1" stop-color="#25284b"/></linearGradient>
  <linearGradient id="sleeve" x2="1" y2=".7"><stop stop-color="#b3b5fb"/><stop offset=".4" stop-color="#7d85d9"/><stop offset="1" stop-color="#424a91"/></linearGradient>
  <linearGradient id="iris" x2="0" y2="1"><stop stop-color="#464276"/><stop offset=".4" stop-color="#7271b8"/><stop offset=".76" stop-color="#a2a5e1"/><stop offset="1" stop-color="#a1e1e9"/></linearGradient>
  <linearGradient id="eyeWhite" x2="0" y2="1"><stop stop-color="#d9d6ec"/><stop offset=".45" stop-color="#fff9f8"/><stop offset="1" stop-color="#fff6ef"/></linearGradient>
  <clipPath id="eyeOpenClip"><path d="M73 112C78 102 94 101 102 111 103 119 96 126 88 126 80 126 76 121 73 112ZM139 111C147 101 162 102 169 111 166 122 161 126 153 126 145 126 138 119 139 111Z"/></clipPath>
  <clipPath id="eyeHalfClip"><path d="M73 118Q87 110 102 116 99 126 88 126 79 125 73 118ZM139 116Q154 110 169 118 164 125 153 126 143 126 139 116Z"/></clipPath>
  <g id="irises">
   <g fill="url(#iris)" stroke="#696597" stroke-width=".8"><ellipse cx="89" cy="115" rx="8.6" ry="11.3"/><ellipse cx="152.5" cy="115" rx="8.6" ry="11.3"/></g>
   <g fill="#44416f"><ellipse cx="89.5" cy="113.5" rx="3.5" ry="6.1"/><ellipse cx="152" cy="113.5" rx="3.5" ry="6.1"/></g>
   <g fill="none" stroke="#d5f5f3" stroke-width="1.3" stroke-linecap="round"><path d="M83.5 120Q89 125 95 119.5M146.5 120Q152 125 158.5 119.5"/></g>
   <g fill="#ede8ff" opacity=".7"><path d="m82 115 1 3 1-1-1-2Zm12 1-1 3 1 1 1-3Zm52 0 1 3 1-1-1-2Zm11 0-1 3 1 1 1-3Z"/></g>
   <g fill="#fffdfb"><ellipse cx="85.2" cy="109" rx="2.4" ry="3.1" transform="rotate(22 85.2 109)"/><ellipse cx="148.7" cy="109" rx="2.4" ry="3.1" transform="rotate(22 148.7 109)"/><circle cx="94" cy="118.5" r="1.1"/><circle cx="157.5" cy="118.5" r="1.1"/></g>
  </g>
  <linearGradient id="metal" x2="1" y2="1"><stop stop-color="#fffaff"/><stop offset=".5" stop-color="#b7c0e7"/><stop offset="1" stop-color="#6e7da9"/></linearGradient>
  <radialGradient id="cheek"><stop stop-color="#f39dac" stop-opacity=".55"/><stop offset="1" stop-color="#f5a6b2" stop-opacity="0"/></radialGradient>
 </defs>
 <!-- Original project artwork: silver-haired future traveller, Xiaocheng. -->
 <g fill="none" stroke="#a2b9dd" stroke-width="1" opacity=".48">
  <circle cx="120" cy="109" r="98" stroke-dasharray="2 7"/>
  <path d="M30 55A105 105 0 0 1 184 24M218 111v29m-6-15h12M27 178h14m-7-7v14"/>
  <path d="M40 31h15m-7-7v14M198 62l4 6-4 6-4-6Z"/>
 </g>
 <ellipse cx="123" cy="275" rx="73" ry="4" fill="#a7afd3" opacity=".3"/>
 <!-- Hair silhouette and long asymmetrical locks. -->
 <g stroke="#66749e" stroke-width="1.5" stroke-linejoin="round">
  <path fill="url(#hairBack)" d="M52 97C31 46 65 15 110 13 156 7 194 30 196 83L194 146C197 181 211 195 199 225 188 214 178 205 177 187L178 129 167 76 80 72 68 161C67 190 54 200 42 202 51 183 43 164 43 143Z"/>
  <path fill="#8190c0" d="M46 87C38 151 64 177 43 200 62 189 68 172 66 145L71 91ZM175 85C166 149 185 185 199 220 198 197 193 177 194 142L190 84Z"/>
  <path fill="none" stroke="#eff6ff" opacity=".8" d="M47 97C45 148 60 166 50 188M183 101C178 157 190 177 194 200"/>
 </g>
 <!-- Jacket, hands, utility belt and separate shoulder plates. -->
 <g stroke="#39486d" stroke-width="1.5" stroke-linejoin="round">
  <path fill="url(#coat)" d="M87 168 59 179C48 190 44 220 44 264L63 277H178L195 265C195 225 190 194 180 181L151 169Z"/>
  <path fill="#262e51" d="M94 165H144L153 188 141 254H99L87 188Z"/>
  <path fill="url(#skin)" d="M104 147 102 167 113 181H131L143 165 138 146Z"/>
  <path fill="#dcb2bd" stroke="none" d="M105 146 138 147 140 159Q121 172 104 157Z"/>
  <path fill="#e8eafa" d="M98 163 87 178 110 208 115 182ZM145 163 153 178 133 207 127 182Z"/>
  <path fill="#313454" d="M112 174H130L134 184 121 195 108 184Z"/>
  <path fill="#91f1ed" d="m121 178 6 7-6 7-6-7Z"/>
  <path fill="url(#sleeve)" d="M61 178 78 177 75 197 69 206 64 241 41 237C42 217 45 191 61 178ZM164 177 181 180C195 195 201 218 201 238L179 243 171 209 162 198Z"/>
  <path fill="#eceafa" d="M61 178 76 174 78 188 59 203 48 198ZM164 175 179 178 192 196 182 204 161 188Z"/>
  <path fill="none" stroke="#8bf2f2" stroke-width="3" d="m55 189 11-6 5 3m100-1 7 4 7 9M62 213l-5 15m127-14 5 15"/>
  <path fill="#1f2b4c" d="m41 236 23 2 3 15-24 2ZM178 240l22-5 2 17-22 5Z"/>
  <path fill="url(#metal)" d="m44 240 9 1 1 9-9 1ZM187 241l9-2 1 9-9 2Z"/>
  <path fill="url(#skin)" d="m46 255 18-2 4 12-5 10-7 1-10-8Z"/>
  <path fill="url(#skin)" d="m180 256 18-3 1 13-8 10-8-1-5-9Z"/>
  <path fill="none" stroke="#d39ba5" d="m52 259 4 8m4-10 3 8m124-5-3 8m9-9-3 9"/>
  <path fill="#7287de" d="M78 196 89 201 96 245 76 270 64 264ZM151 201l11-6 13 68-21 9-13-26Z"/>
  <path fill="none" stroke="#b9dfff" stroke-width="2" d="m81 205 8 34-13 22m79-56-8 34 11 23"/>
  <path fill="#404971" d="M82 246 156 247 160 262 79 263Z"/>
  <rect x="112" y="247" width="18" height="14" rx="3" fill="url(#metal)"/>
  <path fill="#a5f5ec" d="M117 251h8v6h-8Z"/>
  <path fill="#26344f" d="m153 217 20-4 7 27-21 5Z"/>
  <path fill="#b9dce7" d="m156 221 14-3 2 8-14 3Z"/>
  <path stroke="#96f5e2" d="m162 235 9-2"/>
 </g>
 <!-- Face and ear pieces. -->
 <g stroke="#ad869d" stroke-width="1.2" stroke-linejoin="round">
  <path fill="url(#skin)" d="M63 96C51 90 48 108 56 119L67 126ZM179 95C190 88 197 108 185 119L176 125Z"/>
  <path fill="url(#skin)" d="M63 74C62 45 168 40 178 77L178 117C174 140 150 163 124 169 99 164 70 143 64 121Z"/>
 </g>
 <ellipse cx="78" cy="130" rx="17" ry="9" fill="url(#cheek)"/>
 <ellipse cx="165" cy="129" rx="17" ry="9" fill="url(#cheek)"/>
 <g stroke="#a39ab5" stroke-width="1.5" fill="none" stroke-linecap="round">
  <path d="M77 97Q88 91 99 96M142 96Q154 91 165 96"/>
 </g>
 <g id="eyes-open">
  <g clip-path="url(#eyeOpenClip)">
   <path fill="url(#eyeWhite)" d="M70 100h103v30H70Z"/>
   <use href="#irises"/>
   <path d="M72 110Q87 101 103 110M138 110Q154 101 170 110" fill="none" stroke="#675c89" stroke-width="4" opacity=".18"/>
  </g>
  <g fill="#4d435f">
   <path d="M71 109C78 101 93 100 102 109L103 112C94 104 81 104 74 114L71 113 67 107 73 109 70 104 77 108Z"/>
   <path d="M139 109C149 100 164 102 170 109L174 106 171 113 168 114C160 104 149 104 138 112Z"/>
  </g>
  <g fill="none" stroke="#bd919f" stroke-width=".9" stroke-linecap="round">
   <path d="M78 122Q87 129 98 122M144 122Q154 129 164 122"/>
  </g>
 </g>
 <g id="eyes-half" style="display:none">
  <g clip-path="url(#eyeHalfClip)"><path fill="url(#eyeWhite)" d="M70 110h103v20H70Z"/><use href="#irises"/></g>
  <g fill="none" stroke="#5f4e70" stroke-width="2" stroke-linecap="round"><path d="M73 118Q87 110 102 116M139 116Q154 110 169 118"/></g>
 </g>
 <g id="eyes-closed" style="display:none" fill="none" stroke="#66516f" stroke-linecap="round" stroke-width="1.8">
  <path d="M73 118Q87 126 102 116M139 116Q154 126 169 118"/>
  <path stroke-width="1.1" d="m75 119-3 2m7 0-1 3m88-5 3 2m-7 0 1 3"/>
 </g>
 <path d="m121 124-2 7 3 1" fill="none" stroke="#d7a4aa" stroke-width="1.1" stroke-linecap="round"/>
 <g id="mouth-idle"><path d="M113 144Q121 149 130 142" fill="none" stroke="#a36585" stroke-width="1.6" stroke-linecap="round"/><path d="M119 151h6" stroke="#fff6ec" stroke-width="1.5" stroke-linecap="round"/></g>
 <g id="mouth-small" style="display:none"><ellipse cx="122" cy="145" rx="5" ry="4.5" fill="#8a496b"/><path d="M119 147q3-3 6 0" fill="#f0a9b9"/></g>
 <g id="mouth-large" style="display:none"><path d="M113 140Q122 145 131 140 130 154 122 155 115 153 113 140Z" fill="#80415f" stroke="#ab708e" stroke-width="1"/><path d="M115 141q7 3 14 0v3q-7 3-13 0Z" fill="#fff9f3"/><path d="M117 152q5-7 11-1-6 6-11 1" fill="#f3a2b7"/></g>
 <!-- Swept, layered silver fringe. -->
 <g fill="url(#hair)" stroke="#7180a7" stroke-width="1.2" stroke-linejoin="round">
  <path d="M51 88C39 52 67 18 106 17 150 10 184 29 191 66L183 105 166 97C167 76 157 63 148 57 149 80 138 94 128 103 134 82 127 70 123 63 120 86 102 100 85 104 92 91 94 78 93 64 82 83 74 93 58 104Z"/>
  <path d="M63 78C57 107 70 134 68 154L57 170C62 135 43 119 51 82ZM175 74C174 99 186 123 176 146L170 156C187 148 194 125 187 103L185 81Z"/>
  <path d="M100 20C78 33 76 59 76 77 88 53 108 40 125 34 112 46 110 65 102 82 123 68 133 46 132 30 153 35 170 55 174 76 180 48 152 19 123 18Z" stroke="none" fill="#f8fbff"/>
  <path d="M106 21C104 10 116 4 126 6 114 10 111 17 115 21" fill="#edf3ff"/>
 </g>
 <g fill="none" stroke="#aab9d8" stroke-width="1" stroke-linecap="round">
  <path d="M86 34C71 47 65 66 62 86M107 38C100 58 103 76 91 91M139 36C147 49 147 72 136 87M157 37C173 52 178 68 176 87M55 110l6 29M183 116l-3 20"/>
 </g>
 <!-- Asymmetric ear headset, cyan light and violet hair ribbon. -->
 <g stroke="#48577f" stroke-width="1.4" stroke-linejoin="round">
  <path fill="#34446e" d="m46 78 10-5 8 8-4 39-12 2-6-10Z"/>
  <path fill="url(#metal)" d="m48 82 8-3 4 7-4 29-7 2-4-9Z"/>
  <path fill="#94f7ec" stroke="none" d="m49 88 6-2-2 18-5 1Z"/>
  <path fill="none" stroke="#849bc3" stroke-width="2" d="M48 119q2 18 15 20"/>
  <rect x="61" y="136" width="10" height="4" rx="2" fill="#c7f7fa"/>
  <path fill="#8274c7" d="M171 59 183 42 190 46 185 66 204 57 208 64 187 75Z"/>
  <path fill="#b6a8f0" d="m179 60 7-11-2 15m5 3 12-6-13 12"/>
  <path fill="#d7e5f8" d="m171 61 17 5-4 11-17-5Z"/>
  <path fill="#81eced" d="m175 66 8 3-2 4-8-3Z" stroke="none"/>
 </g>
 <g stroke="#b2faf5" stroke-width="1.3" opacity=".9"><path d="M30 102h8m-4-4v8M205 170h9m-4-4v8"/></g>
</svg>
